<svg width="116" height="24" viewBox="0 0 116 24" fill="none" xmlns="http://www.w3.org/2000/svg">
<rect x="103.6" y="8.39999" width="5.2" height="15.2" fill="#3552D4"/>
<circle cx="112.6" cy="11.4" r="3" fill="#EE1C25"/>
<circle cx="96.6" cy="11.4" r="3" fill="#EE1C25"/>
<rect x="87.2" y="4" width="5.6" height="13.6" fill="#3552D4"/>
<rect x="85.6" y="8.39999" width="1.6" height="4.8" fill="#3552D4"/>
<path fill-rule="evenodd" clip-rule="evenodd" d="M87.2031 17.6H92.8C92.8 18.4422 93.8575 19.1325 95.2 19.1953V24L93.418 24L93.4 24C89.9758 24 87.2 21.2242 87.2 17.8C87.2 17.7331 87.201 17.6664 87.2031 17.6Z" fill="#3552D4"/>
<path d="M73.8872 8C76.1407 8 77.9229 8.57678 79.2337 9.73034C80.5446 10.8689 81.2 12.5019 81.2 14.6292H76.5384C76.5384 13.7303 76.3027 13.0187 75.8314 12.4944C75.3748 11.97 74.7194 11.7079 73.8651 11.7079C72.8783 11.7079 72.1492 12.0225 71.6779 12.6517C71.2213 13.2809 70.993 14.1573 70.993 15.2809V16.7191C70.993 17.8277 71.2213 18.7041 71.6779 19.3483C72.1492 19.9775 72.8636 20.2921 73.8209 20.2921C74.7636 20.2921 75.4779 20.0449 75.964 19.5506C76.45 19.0562 76.693 18.3596 76.693 17.4607H81.2C81.2 19.573 80.5593 21.191 79.2779 22.3146C78.0112 23.4382 76.2143 24 73.8872 24C71.295 24 69.3287 23.3258 67.9884 21.9775C66.6628 20.6292 66 18.6367 66 16C66 13.3633 66.6628 11.3708 67.9884 10.0225C69.3287 8.67416 71.295 8 73.8872 8Z" fill="#3552D4"/>
<path d="M53.5866 8C56.186 8 58.167 8.657 59.5294 9.97101C60.9098 11.285 61.6 13.2947 61.6 16V16.9855H50.9513C50.9513 18.087 51.1754 18.9179 51.6235 19.4783C52.0896 20.0386 52.8157 20.3188 53.8017 20.3188C54.698 20.3188 55.3524 20.1159 55.7647 19.7101C56.195 19.3043 56.4101 18.7633 56.4101 18.087H61.6C61.6 19.942 60.9457 21.3913 59.637 22.4348C58.3283 23.4783 56.4191 24 53.9093 24C51.274 24 49.2303 23.343 47.7782 22.029C46.3261 20.6957 45.6 18.686 45.6 16C45.6 13.372 46.3081 11.3816 47.7244 10.029C49.1406 8.67633 51.0947 8 53.5866 8ZM53.8017 11.6812C52.1165 11.6812 51.1754 12.5411 50.9782 14.2609H56.195C56.195 13.4686 55.9798 12.8406 55.5496 12.3768C55.1373 11.913 54.5546 11.6812 53.8017 11.6812Z" fill="#3552D4"/>
<rect x="36" width="5.6" height="23.6" fill="#3552D4"/>
<path d="M23.9866 8C26.586 8 28.5669 8.657 29.9294 9.97101C31.3098 11.285 32 13.2947 32 16V16.9855H21.3513C21.3513 18.087 21.5753 18.9179 22.0235 19.4783C22.4896 20.0386 23.2157 20.3188 24.2017 20.3188C25.098 20.3188 25.7524 20.1159 26.1647 19.7101C26.595 19.3043 26.8101 18.7633 26.8101 18.087H32C32 19.942 31.3457 21.3913 30.037 22.4348C28.7283 23.4783 26.819 24 24.3092 24C21.674 24 19.6303 23.343 18.1782 22.029C16.7261 20.6957 16 18.686 16 16C16 13.372 16.7081 11.3816 18.1244 10.029C19.5406 8.67633 21.4947 8 23.9866 8ZM24.2017 11.6812C22.5165 11.6812 21.5753 12.5411 21.3782 14.2609H26.595C26.595 13.4686 26.3798 12.8406 25.9496 12.3768C25.5373 11.913 24.9546 11.6812 24.2017 11.6812Z" fill="#3552D4"/>
<rect y="8.39999" width="5.2" height="15.2" fill="#3552D4"/>
<circle cx="9" cy="11.4" r="3" fill="#EE1C25"/>
</svg>
